<?xml version="1.0" encoding="UTF-8"?>
<svg width="19px" height="26px" viewBox="0 0 19 26" version="1.1" xmlns="http://www.w3.org/2000/svg" xmlns:xlink="http://www.w3.org/1999/xlink">
    <!-- Generator: Sketch 51.2 (57519) - http://www.bohemiancoding.com/sketch -->
    <title>0 copy</title>
    <desc>Created with Sketch.</desc>
    <defs></defs>
    <g id="Page-1" stroke="none" stroke-width="1" fill="none" fill-rule="evenodd">
        <g id="WELCOME" transform="translate(-790.000000, -623.000000)" fill="#FF1E7C">
            <g id="PASSCODE" transform="translate(727.000000, 605.000000)">
                <path d="M81.9,36.464 C81.9,37.12267 81.7670013,37.7496637 81.501,38.345 C81.2349987,38.9403363 80.8486692,39.4913308 80.342,39.998 L78.404,41.784 C77.8973308,42.2906692 77.31467,42.6643321 76.656,42.905 C75.99733,43.1456679 75.3260034,43.266 74.642,43.266 L70.918,43.266 C70.2339966,43.266 69.5690032,43.1456679 68.923,42.905 C68.2769968,42.6643321 67.6880027,42.2906692 67.156,41.784 L65.256,39.998 C64.7493308,39.4913308 64.3630013,38.9403363 64.097,38.345 C63.8309987,37.7496637 63.698,37.12267 63.698,36.464 L63.698,25.634 C63.698,25.0006635 63.8309987,24.380003 64.097,23.772 C64.3630013,23.163997 64.7493308,22.6066692 65.256,22.1 L67.156,20.314 C67.6880027,19.8073308 68.2769968,19.4336679 68.923,19.193 C69.5690032,18.9523321 70.2339966,18.832 70.918,18.832 L74.642,18.832 C75.3260034,18.832 75.99733,18.9523321 76.656,19.193 C77.31467,19.4336679 77.8973308,19.8073308 78.404,20.314 L80.342,22.1 C80.8486692,22.6066692 81.2349987,23.163997 81.501,23.772 C81.7670013,24.380003 81.9,25.0006635 81.9,25.634 L81.9,36.464 Z M78.29,25.634 C78.29,25.1779977 78.1126684,24.7980015 77.758,24.494 L75.858,22.708 C75.5033316,22.4039985 75.0980023,22.252 74.642,22.252 L70.918,22.252 C70.4366643,22.252 70.031335,22.4039985 69.702,22.708 L67.84,24.494 C67.4853316,24.8486684 67.308,25.2413312 67.308,25.672 L67.308,36.426 C67.308,36.8566688 67.4853316,37.2493316 67.84,37.604 L69.702,39.39 C70.0566684,39.6940015 70.4239981,39.846 70.804,39.846 L74.642,39.846 C75.0980023,39.846 75.5033316,39.6940015 75.858,39.39 L77.758,37.604 C78.1126684,37.2999985 78.29,36.9200023 78.29,36.464 L78.29,25.634 Z" id="0-copy"></path>
            </g>
        </g>
    </g>
</svg>