<?xml version="1.0" encoding="UTF-8"?>
<svg width="18px" height="24px" viewBox="0 0 18 24" version="1.1" xmlns="http://www.w3.org/2000/svg" xmlns:xlink="http://www.w3.org/1999/xlink">
    <!-- Generator: Sketch 51.2 (57519) - http://www.bohemiancoding.com/sketch -->
    <title>4</title>
    <desc>Created with Sketch.</desc>
    <defs></defs>
    <g id="Page-1" stroke="none" stroke-width="1" fill="none" fill-rule="evenodd">
        <g id="WELCOME" transform="translate(-884.000000, -624.000000)" fill="#FF1E7C">
            <g id="PASSCODE" transform="translate(727.000000, 605.000000)">
                <path d="M170.8683,36.3892668 L170.8683,38.7964587 L173.167707,38.7964587 L173.167707,42.03 L164.580858,42.03 L164.580858,38.7964587 L167.455117,38.7964587 L167.455117,36.3892668 L157,36.3892668 L157,31.5389548 C157,30.4611023 157.347303,29.5150015 158.041919,28.700624 L166.1617,19 L170.8683,19 L170.8683,33.1557254 L174.029984,33.1557254 L174.029984,36.3892668 L170.8683,36.3892668 Z M167.455117,22.5928237 L160.808393,30.6048206 C160.544918,30.9162002 160.413183,31.2395511 160.413183,31.574883 L160.413183,33.1557254 L167.455117,33.1557254 L167.455117,22.5928237 Z" id="4"></path>
            </g>
        </g>
    </g>
</svg>