<?xml version="1.0" encoding="UTF-8"?>
<svg width="19px" height="24px" viewBox="0 0 19 24" version="1.1" xmlns="http://www.w3.org/2000/svg" xmlns:xlink="http://www.w3.org/1999/xlink">
    <!-- Generator: Sketch 51.2 (57519) - http://www.bohemiancoding.com/sketch -->
    <title>7</title>
    <desc>Created with Sketch.</desc>
    <defs></defs>
    <g id="Page-1" stroke="none" stroke-width="1" fill="none" fill-rule="evenodd">
        <g id="WELCOME" transform="translate(-841.000000, -624.000000)" fill="#FF1E7C">
            <g id="PASSCODE" transform="translate(727.000000, 605.000000)">
                <path d="M132.178,24.57 C132.178,25.178003 132.057668,25.7733304 131.817,26.356 C131.576332,26.9386696 131.202669,27.4706643 130.696,27.952 L124.274,33.956 C124.147333,34.0826673 124.046,34.310665 123.97,34.64 C123.894,34.969335 123.856,35.2226658 123.856,35.4 L123.856,43 L120.246,43 L120.246,35.4 C120.246,34.791997 120.366332,34.1143371 120.607,33.367 C120.847668,32.6196629 121.221331,32.0053357 121.728,31.524 L128.15,25.52 C128.200667,25.4693331 128.251333,25.3870006 128.302,25.273 C128.352667,25.1589994 128.403333,25.0513338 128.454,24.95 C128.504667,24.8486662 128.542667,24.7220008 128.568,24.57 L128.568,22.556 L117.738,22.556 L117.738,24.76 L114.128,24.76 L114.128,19.174 L132.178,19.174 L132.178,24.57 Z" id="7"></path>
            </g>
        </g>
    </g>
</svg>