<?xml version="1.0" encoding="utf-8"?>
<!-- Generator: Adobe Illustrator 22.1.0, SVG Export Plug-In . SVG Version: 6.00 Build 0)  -->
<svg version="1.1" id="Слой_1" xmlns="http://www.w3.org/2000/svg" xmlns:xlink="http://www.w3.org/1999/xlink" x="0px" y="0px"
	 viewBox="0 0 256 546.9" style="enable-background:new 0 0 256 546.9;" xml:space="preserve">
<style type="text/css">
	.st0{filter:url(#filter-1);}
	.st1{fill:#323547;}
	.st2{fill:#535774;}
	.st3{filter:url(#Adobe_OpacityMaskFilter);}
	.st4{fill:#FFFFFF;}
	.st5{mask:url(#mask-3_2_);fill:#323547;}
</style>
<filter  filterUnits="objectBoundingBox" height="146.5%" id="filter-1" width="297.4%" x="-98.7%" y="-23.2%">
	<feOffset  dx="0" dy="0" in="SourceAlpha" result="shadowOffsetOuter1"></feOffset>
	<feGaussianBlur  in="shadowOffsetOuter1" result="shadowBlurOuter1" stdDeviation="37.5"></feGaussianBlur>
	
		<feColorMatrix  in="shadowBlurOuter1" result="shadowMatrixOuter1" type="matrix" values="0 0 0 0 0.325490196   0 0 0 0 0.341176471   0 0 0 0 0.454901961  0 0 0 0.28 0">
		</feColorMatrix>
	<feMerge>
		<feMergeNode  in="shadowMatrixOuter1"></feMergeNode>
		<feMergeNode  in="SourceGraphic"></feMergeNode>
	</feMerge>
</filter>
<g id="Page-1">
	<g id="WELCOME" transform="translate(-413.000000, -159.000000)">
		<g id="WELCOME_x2F_PROMPT" transform="translate(413.000000, 159.000000)">
			<g id="BOND" transform="translate(70.000000, 63.000000)" class="st0">
				<path id="Fill-1_1_" class="st1" d="M42,236.1c4.3,52.4,11.1,105,14.2,157.5c1.4,24.4,0.8,52.8-7.9,67.3c0,0,10.5,5.9,42.9,3.6
					c0,0,0.6-70.3-4.5-113.9c-0.5-4.4-0.6-12.2,1.7-30.1c2.3-17.9,6.7-57.9,5.3-93.5L42,236.1z"/>
				<path id="Fill-3_1_" class="st1" d="M10,160c0,0,28.7-5.3,57-16.7c-14.5-11-14.8-14.5-8-30.3c-4.7,4.2-20,11.3-33.3,16.7
					C12.4,135.1,12.1,147.9,10,160"/>
				<path id="Fill-5_1_" class="st1" d="M53.4,460.2c0,0-5.6,3.5-9.5,5.9c-3.3,2.1-13.3,2.1-17.2,4.2c-2.3,1.2-2.3,3.7-2.6,5.9
					c2.1,2.8,10.1,2.7,12.2,2.7c5.2,0.1,13.2,0.2,17.6-0.1c6.1-0.5,9.2-4.5,16.3-4.4v3.1c0,0,1,1.4,6.7,1.5
					c5.7,0.1,13.3,0.2,15.3-1.2c0-3.9,0.2-13.7-2-16.1C87.8,459.3,53.4,460.2,53.4,460.2"/>
				<path id="Fill-7_1_" class="st1" d="M8.4,100c0,0,8.7-0.1,16.4-0.3c0.1-0.6,0.2-1.5,0.4-1.9c0.5-0.4,2.9-2.3,5.1-4.2
					c2.2-1.9,3.7-3.7,3.7-3.7c-0.1-2.3,0.2-5.5-0.3-7.9c-0.2-1.1-0.9-1.9-1.4-2.5c-0.6-4.6-0.4-7.7-1.3-11.4c-0.3-1.3-1.7-1.3-2.8-1
					c-1.1,0.3-1,3.2-0.9,4c0.1,0.9,0.6,1.3,0.6,1.3l-0.2,1.8c0,0-1.6-3.1-3.2-3.4c-1.6-0.3-3.5,0.4-3.7,1.7c0,0-1.4-0.4-2.5-0.1
					c-1.1,0.3-2.1,1-2.2,1.8c0,0-1.2-0.5-2.8,0c-1.7,0.5-4.2,2.9-4.4,3.9c-0.2,1-0.6,1.3-0.5,3c0,0-0.9,1.4-0.8,3.1
					c0,0-0.5,1.6-0.6,3.9c-0.1,2.3,0.6,6.1,2,7.5L8.4,100z"/>
				<path id="Fill-9_1_" class="st2" d="M97,80.9c-0.5-1.6-0.9-3.2-1.4-4.9c-8.5,3.2-17,8.7-26,9.9c0,0-2.2,9.1-4.5,16
					c1.5-0.6,2.4-0.9,3.1-1.1c-0.5,1-0.6,1.3-1.2,2.3c-0.1,0.1-9.8,13.4-11,23L97,80.9z"/>
				<path id="Fill-11_1_" class="st1" d="M59.1,53.7c0,0,0.1,4.9-0.8,7.3c0.8,1,1.5,1.6,2.4,2.2c-0.3,0.6-1.2,2.3-0.8,5.2
					c0,0,4.6,4,3.3,21.2c3.2,1.3,6.8,1.6,17,2.6c0,0,6.7-12.7,12.4-16.2c-0.1-1.9,0.2-3.3-0.6-6c0,0,1.3,1,2.5-0.6
					c0.6-0.8,1.4-3.9,1.6-7.5c0,0,2.1-11.2,5.9-16.4c0,0-1.1-4.7-7.3-8.4c0,0,2.6-7-8-7.8c-10.5-0.8-17.5,0.9-19.1,1.7
					c-1.5,0.8-6.9,6.6-10.5,8c0,0,0.4,5.2-0.1,8.5C56.7,49.7,58.2,52.4,59.1,53.7"/>
				<path id="Fill-13_1_" class="st1" d="M94.6,67.7l0.4,9.2L79,85l-2-11.4C77,73.6,89,64.4,94.6,67.7"/>
				<polygon id="Fill-15_1_" class="st1" points="67,96.5 63.2,91 63,103.2 66.9,99.6 70.2,104 73,92.2 				"/>
				<path id="Fill-17_1_" class="st1" d="M96.6,79l3.7,7.8L99,87.7c0,0,9,15.8,7.9,34.6c-1.1,18.8-11.9,55.4-13.7,62.8
					c0.8,9,3.2,20.2,6.3,74.9c-17.5-2.7-21.8-16.7-32.8-16.7c-10.2,0-15.1,8.6-31.7,11.4c1.5-22.2,3.1-44.3,4.6-66.5
					c0-24.4,0.1-38.3,6.3-57.1c1.9-5.7,9.6-19.2,19.8-29.1c0,0-5.8,9.4-10.1,20.5C55.6,122.5,80,88.5,96.6,79"/>
				<path id="Fill-19_1_" class="st1" d="M42,236.3c5.4,53.3,13.2,106.8,17.3,160.1c1.9,24.8,2,53.7-6.2,68.4c0,0,10.4,6,41.8,3.7
					c0,0-1-71.5-6.9-115.8c-0.6-4.5-0.8-12.4,1-30.6c1.8-18.2,5.3-58.9,3-95.1L42,236.3z"/>
				<path id="Fill-21_1_" class="st1" d="M56.4,465.2c0,0-5.6,3.5-9.5,5.9c-3.3,2.1-13.3,2.1-17.2,4.2c-2.3,1.2-2.3,3.7-2.6,5.9
					c2.1,2.8,10.1,2.7,12.2,2.7c5.2,0.1,13.2,0.2,17.6-0.1c6.1-0.5,9.2-4.5,16.3-4.4v3.1c0,0,1,1.4,6.7,1.5
					c5.7,0.1,13.3,0.2,15.3-1.2c0-3.9,0.2-13.7-2-16.1C90.8,464.3,56.4,465.2,56.4,465.2"/>
				<path id="Fill-23_1_" class="st1" d="M27.9,103.4c0,0-19.9-2.3-27.9,3.9c2.2,15.5,6.6,45,10.6,53.7c6.8-9,12.7-19.9,19.4-28.8
					C28.6,124,28.7,115,27.9,103.4"/>
				<path id="Fill-25_1_" class="st2" d="M26,103.8c0-1.9,0-3.9,0-5.8c-4.5,0.2-10.2,0.2-21,0.3c0.3,2.6,0.4,5.1,0.7,7.7
					C10.4,106.1,19.3,105.4,26,103.8"/>
				<path id="Fill-27_1_" class="st2" d="M64.4,241c-0.8,1.6-1.6,3.3-2.4,4.9c1.4,2.8,8.3,9.7,20.8,9c0.7-1.2,1.5-2.5,2.2-3.7
					L64.4,241z"/>
				<g id="Group-31_1_" transform="translate(62.000000, 94.000000)">
					<defs>
						<filter id="Adobe_OpacityMaskFilter" filterUnits="userSpaceOnUse" x="0.3" y="0.1" width="51.2" height="158.5">
							<feColorMatrix  type="matrix" values="1 0 0 0 0  0 1 0 0 0  0 0 1 0 0  0 0 0 1 0"/>
						</filter>
					</defs>
					<mask maskUnits="userSpaceOnUse" x="0.3" y="0.1" width="51.2" height="158.5" id="mask-3_2_">
						<g class="st3">
							<polygon id="path-2_2_" class="st4" points="0.3,0.1 51.6,0.1 51.6,158.6 0.3,158.6 							"/>
						</g>
					</mask>
					<path id="Fill-29_1_" class="st5" d="M40,1.5c4.8,10.1,7.7,23.7,8.6,34.7c1.4,15.5,3.4,42.5,2.8,58.3
						c-9.8,21.3-19.9,42.9-29.3,64c-8.7-0.6-16-3.6-21.9-11.7l25.8-57c0,0-6.6-36.9-8.9-51.7C15,23.3,36-6.8,40,1.5"/>
				</g>
				<path id="Fill-32_1_" class="st1" d="M30.9,71.6c0,0-2.2,0.7-5.9-0.6c0,0,1.1,2.3,5.8,4C31,74,31.1,73.2,30.9,71.6"/>
				<path id="Fill-34_1_" class="st1" d="M33.2,46.2l-1.5,0.3v27.8c0,0,0,2-0.7,2.9c-0.7,0.9-4,3.4-8.7,5.3
					c-4.7,1.8-7.1,1.9-8.3,1.6v13.1c3.1,2.2,7.1-0.2,9.8-1.8l10-5.8v4.1l3.7,0.4l6.5-4.4V41.8l-0.7-0.1v-1.4c0,0-2.7-0.8-5.8,0v1.2
					l-0.7,0v1.6h-3.6L33.2,46.2z"/>
				<path id="Fill-36_1_" class="st1" d="M42,1c-2-1.5-5.2-1.2-7,0v40.2c1.4,1,4.9,1.2,7,0V1z"/>
				<path id="Fill-38_1_" class="st1" d="M31.9,60c0,0-0.9,1.8-2.9,2.6c-2,0.8-4.7,2.4-4.9,5.3c-0.3,4.4-0.2,8.7,0.1,13l1.9-0.7
					c0,0-1.1-8.6-0.6-11.6c0.5-3,2.8-4.2,3.8-4c1,0.1,2.5,0.9,3,2.8C32.9,69.4,33.7,60.1,31.9,60"/>
			</g>
		</g>
	</g>
</g>
</svg>
