<?xml version="1.0" encoding="UTF-8"?>
<svg width="256px" height="620px" viewBox="0 0 256 620" version="1.1" xmlns="http://www.w3.org/2000/svg" xmlns:xlink="http://www.w3.org/1999/xlink">
    <!-- Generator: Sketch 51.2 (57519) - http://www.bohemiancoding.com/sketch -->
    <defs>
        <filter x="-98.7%" y="-23.2%" width="297.4%" height="146.5%" filterUnits="objectBoundingBox" id="filter-1">
            <feOffset dx="0" dy="0" in="SourceAlpha" result="shadowOffsetOuter1"></feOffset>
            <feGaussianBlur stdDeviation="37.5" in="shadowOffsetOuter1" result="shadowBlurOuter1"></feGaussianBlur>
            <feColorMatrix values="0 0 0 0 0.325490196   0 0 0 0 0.341176471   0 0 0 0 0.454901961  0 0 0 0.28 0" type="matrix" in="shadowBlurOuter1" result="shadowMatrixOuter1"></feColorMatrix>
            <feMerge>
                <feMergeNode in="shadowMatrixOuter1"></feMergeNode>
                <feMergeNode in="SourceGraphic"></feMergeNode>
            </feMerge>
        </filter>
        <polygon id="path-2" points="0.344002891 0.105853257 51.5731365 0.105853257 51.5731365 158.60359 0.344002891 158.60359"></polygon>
    </defs>
    <g id="Page-1" stroke="none" stroke-width="1" fill="none" fill-rule="evenodd">
        <g id="WELCOME" transform="translate(-413.000000, -159.000000)">
            <g id="WELCOME/PROMPT" transform="translate(413.000000, 159.000000)">
                <g id="BOND" filter="url(#filter-1)" transform="translate(70.000000, 63.000000)">
                    <path d="M42,236.111049 C46.3387624,288.500169 53.141817,341.118423 56.2319327,393.57959 C57.6713866,418.014894 57.0575636,446.366152 48.3626382,460.851822 C48.3626382,460.851822 58.8624312,466.723098 91.2282426,464.495533 C91.2282426,464.495533 91.8426656,394.191994 86.7268741,350.609197 C86.2066546,346.180642 86.1688532,338.456802 88.4519387,320.537658 C90.7350241,302.619105 95.1877908,262.634546 93.7033352,227 L42,236.111049 Z" id="Fill-1" fill="#323547"></path>
                    <path d="M10,160 C10,160 38.6801425,154.722464 67,143.325774 C52.4894583,132.288103 52.2283121,128.843151 58.9528274,113 C54.2292241,117.162993 38.914086,124.267256 25.6464069,129.705853 C12.3787278,135.14445 12.1393437,147.94208 10,160" id="Fill-3" fill="#323547"></path>
                    <path d="M53.3592478,460.150244 C53.3592478,460.150244 47.7373518,463.616574 43.8539561,466.0808 C40.5428069,468.180941 30.5129069,468.176896 26.6318637,470.252186 C24.3569925,471.468696 24.3193524,473.906916 24,476.183898 C26.068439,478.98216 34.0904771,478.852129 36.1518585,478.892583 C41.3291313,478.993718 49.3335256,479.113924 53.7679954,478.747526 C59.8586278,478.243585 62.9662853,474.2161 70.0190918,474.374449 L70.0190918,477.440284 C70.0190918,477.440284 70.9900878,478.848083 76.7137296,478.948063 C82.4373714,479.04862 90.0518382,479.149177 91.9938301,477.741955 C91.9938301,473.832365 92.2155536,464.039029 90.0006712,461.6586 C87.8028445,459.296664 53.3592478,460.150244 53.3592478,460.150244" id="Fill-5" fill="#323547"></path>
                    <path d="M8.3532382,100 C8.3532382,100 17.0474839,99.872086 24.762504,99.733463 C24.9072171,99.083779 24.9470133,98.2538255 25.1966434,97.7856009 C25.734494,97.3953145 28.1083927,95.4920736 30.2839138,93.6251245 C32.4594349,91.7575805 33.9867616,89.9120496 33.9867616,89.9120496 C33.915008,87.6351809 34.2002135,84.4057993 33.6653778,82.0283842 C33.4229833,80.9479574 32.7609206,80.1257382 32.2574394,79.5046118 C31.6249224,74.9360006 31.8353594,71.8154946 30.9948172,68.1476358 C30.702979,66.8750405 29.2618771,66.8399385 28.1674839,67.1903633 C27.0724877,67.5401932 27.1544918,70.3626299 27.2847337,71.2366095 C27.4161815,72.1117791 27.9130299,72.5341927 27.9130299,72.5341927 L27.7321385,74.3481913 C27.7321385,74.3481913 26.1541622,71.2615974 24.5665383,70.9248564 C22.9783114,70.5875205 21.0970404,71.3526245 20.8214824,72.6174855 C20.8214824,72.6174855 19.4599728,72.2230345 18.31493,72.5615603 C17.1686812,72.9006811 16.2129714,73.597961 16.1611159,74.327963 C16.1611159,74.327963 14.9865274,73.8139273 13.325341,74.3077348 C11.6629486,74.8021372 9.09971689,77.2217936 8.94113539,78.1939398 C8.78255389,79.165491 8.33575203,79.4944977 8.39303432,81.2002156 C8.39303432,81.2002156 7.48797413,82.6483208 7.60675951,84.3147721 C7.60675951,84.3147721 7.14066256,85.9621851 7.01403855,88.2640417 C6.88741454,90.5658983 7.62364271,94.3206196 8.96887208,95.7705096 L8.3532382,100 Z" id="Fill-7" fill="#323547"></path>
                    <path d="M97,80.860401 C96.5399208,79.2402673 96.0798416,77.6201337 95.6197624,76 C87.1459505,79.2135128 78.6427218,84.7172109 69.572925,85.8504126 C69.572925,85.8504126 67.3713695,94.9380247 65.0862702,101.871008 C66.5459333,101.232467 67.4713868,100.989298 68.2197509,100.732455 C67.6908363,101.772908 67.581994,102.0571 66.9913041,103.042855 C66.9318821,103.124307 57.2266818,116.4861 56,126 L97,80.860401 Z" id="Fill-9" fill="#535774"></path>
                    <path d="M59.1176432,53.6537488 C59.1176432,53.6537488 59.2658294,58.5729452 58.3439802,60.9057478 C59.1176432,61.8608233 59.8109643,62.4701462 60.7179355,63.0689028 C60.4287045,63.6817478 59.4800746,65.3770508 59.894877,68.2281889 C59.894877,68.2281889 64.5112648,72.1799825 63.1769937,89.4147803 C66.3597244,90.6991719 69.988204,91.0232049 80.1821072,92 C80.1821072,92 86.9320197,79.3445161 92.6053502,75.8036339 C92.5392913,73.9116805 92.8124539,72.4811218 92.0120102,69.8101977 C92.0120102,69.8101977 93.3373545,70.8363022 94.4924929,69.2155503 C95.0626231,68.4148601 95.9065109,65.3013257 96.0749314,61.7633786 C96.0749314,61.7633786 98.2138121,50.5413885 102,45.3961908 C102,45.3961908 100.879974,40.7170841 94.7085234,37.0147724 C94.7085234,37.0147724 97.2633968,30.001689 86.7374136,29.20863 C76.2114305,28.415571 69.200258,30.0809362 67.6547173,30.90452 C66.1085814,31.7275168 60.7923261,37.4884946 57.1906271,38.8879414 C57.1906271,38.8879414 57.6006685,44.1258876 57.0656508,47.3380407 C56.6698924,49.7095864 58.1529449,52.4321679 59.1176432,53.6537488" id="Fill-11" fill="#323547"></path>
                    <path d="M94.5637163,67.7374765 L95,76.8949351 L78.962963,85 L77,73.6318491 C77,73.6318491 89,64.3690907 94.5637163,67.7374765" id="Fill-13" fill="#323547"></path>
                    <polygon id="Fill-15" fill="#323547" points="67.0383977 96.4936977 63.2401239 91 63 103.238863 66.8939914 99.648321 70.1633285 104 73 92.1970557"></polygon>
                    <path d="M96.5672361,79 L100.287196,86.795847 L99.0474074,87.7193886 C99.0474074,87.7193886 108.037508,103.516314 106.90059,122.287916 C105.764266,141.059519 95.0200277,177.726951 93.1606425,185.104668 C93.9871681,194.120699 96.3632805,205.286942 99.4624541,260 C81.9692484,257.336119 77.649909,243.251225 66.6648489,243.274815 C56.4153371,243.296636 51.5632158,251.906921 35,254.673418 C36.5489922,232.508419 38.098579,210.343421 39.6481658,188.177833 C39.6481658,163.793032 39.7462785,149.916908 45.931544,131.109331 C47.7974701,125.435978 55.5418364,111.927266 65.7723202,101.977078 C65.7723202,101.977078 59.9854519,111.414187 55.6453007,122.493148 C55.6453007,122.493148 80.0331568,88.5397247 96.5672361,79" id="Fill-17" fill="#323547"></path>
                    <path d="M42,236.264196 C47.3847986,289.533914 55.1750488,343.03648 59.3454333,396.379075 C61.2874439,421.225202 61.3172491,450.052872 53.1687525,464.781616 C53.1687525,464.781616 63.5251684,470.752152 95,468.487057 C95,468.487057 94.0433129,397.001783 88.0957227,352.686388 C87.4920222,348.183453 87.2839705,340.32998 89.1114358,322.110276 C90.9389011,303.890573 94.3910397,263.233812 92.1574061,227 L42,236.264196 Z" id="Fill-19" fill="#323547"></path>
                    <path d="M56.3592478,465.150244 C56.3592478,465.150244 50.7373518,468.616576 46.8539561,471.080804 C43.5428069,473.180945 33.5129069,473.1769 29.6318637,475.252191 C27.3569925,476.468702 27.3193524,478.906923 27,481.183907 C29.068439,483.982169 37.0904771,483.852139 39.1518585,483.892593 C44.3291313,483.993728 52.3335256,484.113934 56.7679954,483.747536 C62.8586278,483.243017 65.9668735,479.216108 73.0190918,479.374456 L73.0190918,482.440293 C73.0190918,482.440293 73.9900878,483.848093 79.7137296,483.948073 C85.4373714,484.04863 93.0518382,484.149187 94.9938301,482.741387 C94.9938301,478.832372 95.2155536,469.039609 93.0006712,466.658601 C90.8034327,464.296664 56.3592478,465.150244 56.3592478,465.150244" id="Fill-21" fill="#323547"></path>
                    <path d="M27.9152911,103.425468 C27.9152911,103.425468 8.01815766,101.099818 0,107.323113 C2.15234721,122.831207 6.58205169,152.33949 10.5914325,161 C17.3462034,152.045149 23.2452291,141.11477 30,132.160512 C28.5530236,124.04477 28.710645,114.996157 27.9152911,103.425468" id="Fill-23" fill="#323547"></path>
                    <path d="M25.9716599,103.823151 C25.9811066,101.881721 25.9905533,99.9408607 26,98 C21.5382085,98.1626388 15.7609649,98.2177995 5,98.2792155 C5.29698043,100.882573 5.3890857,103.386414 5.68547571,105.990341 C10.3539136,106.08872 19.2645074,105.44044 25.9716599,103.823151" id="Fill-25" fill="#535774"></path>
                    <path d="M64.420957,241 C63.6141732,242.637471 62.8073895,244.274942 62,245.912412 C63.4033919,248.680773 70.2634767,255.581458 82.7892187,254.960717 C83.525742,253.720425 84.262871,252.479538 85,251.238057 L64.420957,241 Z" id="Fill-27" fill="#535774"></path>
                    <g id="Group-31" transform="translate(62.000000, 94.000000)">
                        <mask id="mask-3" fill="white">
                            <use xlink:href="#path-2"></use>
                        </mask>
                        <g id="Clip-30"></g>
                        <path d="M40.0144139,1.53005744 C44.837694,11.6245732 47.6653183,25.2790707 48.6628495,36.2511386 C50.0698374,51.7259198 52.0245476,78.764124 51.4797923,94.5719129 C41.7198897,115.915805 31.5475634,137.465902 22.2000844,158.60359 C13.5403739,157.986163 6.16718793,155.041238 0.344002891,146.867738 L26.1184061,89.8369237 C26.1184061,89.8369237 19.5196272,52.9826977 17.2515937,38.1585257 C14.9835601,23.3349462 36.0450585,-6.77735689 40.0144139,1.53005744" id="Fill-29" fill="#323547" mask="url(#mask-3)"></path>
                    </g>
                    <path d="M30.9022041,71.5572423 C30.9022041,71.5572423 28.6711526,72.2106262 25,71 C25,71 26.0982726,73.2555345 30.8116249,75 C30.9593553,74.030993 31.1006157,73.2390892 30.9022041,71.5572423" id="Fill-32" fill="#323547"></path>
                    <path d="M33.2035839,46.1536574 L31.7503235,46.4611177 L31.7503235,74.2244344 C31.7503235,74.2244344 31.7509209,76.2729921 31.0245893,77.1441297 C30.2976605,78.0146784 26.9754107,80.576259 22.3038328,82.4204322 C17.6334495,84.2640163 15.245993,84.3665031 14,84.0083883 L14,97.1213958 C17.0654057,99.2936444 21.0954704,96.9476394 23.823992,95.3602723 L33.8265804,89.5403187 L33.8265804,93.6386121 L37.511996,93.9973158 L44,89.5915621 L44,41.799147 L43.2730712,41.7479036 L43.2730712,40.364921 C43.2730712,40.364921 40.6198109,39.5438487 37.511996,40.364921 L37.511996,41.5941734 L36.8107516,41.6200896 L36.8107516,43.2592892 L33.2029866,43.2592892 L33.2035839,46.1536574 Z" id="Fill-34" fill="#323547"></path>
                    <path d="M42,1.0161218 C40.0044444,-0.440820182 36.7538889,-0.232600136 35,1.0161218 L35,41.1876323 C36.4161111,42.1503508 39.9322222,42.3848975 42,41.1876323 L42,1.0161218 Z" id="Fill-36" fill="#323547"></path>
                    <path d="M31.9347681,60 C31.9347681,60 31.0433299,61.8283596 29.0523708,62.6186791 C27.0602053,63.4089987 24.3877001,64.9907741 24.177808,67.9548984 C23.8702075,72.305917 24.0107387,76.6535267 24.230281,81 L26.1693703,80.259111 C26.1693703,80.259111 25.0692462,71.6610481 25.5927702,68.6963556 C26.1168972,65.7316631 28.3708246,64.5458997 29.4190788,64.6941912 C30.4667298,64.8419145 31.9347681,65.5833717 32.4064222,67.5105922 C32.8780762,69.4378128 33.6639653,60.1482914 31.9347681,60" id="Fill-38" fill="#323547"></path>
                </g>
            </g>
        </g>
    </g>
</svg>