<?xml version="1.0" encoding="UTF-8"?>
<svg width="15px" height="15px" viewBox="0 0 15 15" version="1.1" xmlns="http://www.w3.org/2000/svg" xmlns:xlink="http://www.w3.org/1999/xlink">
    <!-- Generator: Sketch 51.2 (57519) - http://www.bohemiancoding.com/sketch -->
    <title>SYMBOL/CLOSE</title>
    <desc>Created with Sketch.</desc>
    <defs></defs>
    <g id="Page-1" stroke="none" stroke-width="1" fill="none" fill-rule="evenodd" opacity="0.5">
        <g id="STATS" transform="translate(-990.000000, -189.000000)" fill="#FFFDFE">
            <g id="PROMPT/B" transform="translate(425.000000, 180.000000)">
                <path d="M576.416322,17.5893988 L576.416322,16.2095911 L573.589399,16.2095911 L573.589399,13.382668 L572.209591,13.382668 L572.209591,16.2095911 L569.382668,16.2095911 L569.382668,17.5893988 L572.209591,17.5893988 L572.209591,20.4163219 L573.589399,20.4163219 L573.589399,17.5893988 L576.416322,17.5893988 Z M572.899495,9.89949494 C574.178347,9.89949494 575.361829,10.2192033 576.449976,10.8586296 C577.504468,11.4644018 578.334588,12.2945217 578.94036,13.3490142 C579.579787,14.4371606 579.899495,15.6206424 579.899495,16.8994949 C579.899495,18.1783475 579.579787,19.3618292 578.94036,20.4499757 C578.334588,21.5044682 577.504468,22.3345881 576.449976,22.9403603 C575.361829,23.5797866 574.178347,23.8994949 572.899495,23.8994949 C571.620642,23.8994949 570.437161,23.5797866 569.349014,22.9403603 C568.294522,22.3233701 567.464402,21.4876412 566.85863,20.4331488 C566.219203,19.3450023 565.899495,18.1671295 565.899495,16.8994949 C565.899495,15.6318604 566.219203,14.4539876 566.85863,13.3658411 C567.47562,12.3113486 568.311349,11.4756198 569.365841,10.8586296 C570.453988,10.2192033 571.63186,9.89949494 572.899495,9.89949494 Z" id="SYMBOL/CLOSE" transform="translate(572.899495, 16.899495) rotate(45.000000) translate(-572.899495, -16.899495) "></path>
            </g>
        </g>
    </g>
</svg>