<?xml version="1.0" encoding="UTF-8"?>
<svg width="50px" height="50px" viewBox="0 0 50 50" version="1.1" xmlns="http://www.w3.org/2000/svg" xmlns:xlink="http://www.w3.org/1999/xlink">
    <!-- Generator: Sketch 51.2 (57519) - http://www.bohemiancoding.com/sketch -->
    <title>Crosshairs</title>
    <desc>Created with Sketch.</desc>
    <defs></defs>
    <g id="Page-1" stroke="none" stroke-width="1" fill="none" fill-rule="evenodd" opacity="0.03">
        <g id="WELCOME" transform="translate(-94.000000, -150.000000)" fill="#FFFDFE">
            <g id="DASHBOARD" transform="translate(6.000000, 139.000000)">
                <path d="M123.862431,45.0195061 L127.121635,41.7603015 L126.490776,41.1296434 L123.231572,44.3886469 L122.040395,43.1972697 L123.056322,42.1811423 L122.425664,41.5502831 L121.409536,42.5664105 L116.962371,38.1192453 C117.889668,36.6951396 117.889668,34.8401443 116.962371,33.4160386 L121.408933,28.9694763 L122.425664,29.9856037 L123.056322,29.3549455 L122.039793,28.3386172 L123.231572,27.146637 L126.490776,30.4058415 L127.121635,29.7749824 L123.862431,26.5159788 L126.264479,24.1139308 C132.227394,30.7145385 132.227394,40.8205445 126.264479,47.4213531 L123.862431,45.0195061 Z M101.695338,48.6830714 L104.097185,46.2810234 L107.35639,49.5402279 L107.987249,48.9093688 L104.728045,45.6503652 L105.919623,44.458787 L106.935951,45.4753164 L107.56681,44.8444572 L106.550281,43.8279279 L110.997446,39.3807627 C112.421552,40.3084613 114.276748,40.3084613 115.700854,39.3807627 L120.147818,43.8279279 L119.13149,44.8444572 L119.762349,45.4753164 L120.778476,44.458988 L121.970054,45.6503652 L118.71085,48.9093688 L119.341709,49.5402279 L122.600914,46.2810234 L125.002962,48.6830714 C118.402153,54.6459868 108.295946,54.6459868 101.695338,48.6830714 Z M100.43362,24.1139308 L102.835668,26.5159788 L99.5764635,29.7749824 L100.207323,30.4058415 L103.466527,27.146637 L104.658105,28.3386172 L103.641978,29.3549455 L104.272636,29.9856037 L105.289165,28.9694763 L109.735929,33.4160386 C108.808431,34.8401443 108.808431,36.6951396 109.735929,38.1192453 L105.288563,42.5664105 L104.272636,41.5502831 L103.641978,42.1811423 L104.657703,43.1972697 L103.466527,44.3886469 L100.207323,41.1296434 L99.5764635,41.7603015 L102.835668,45.0195061 L100.433821,47.4213531 C94.4707047,40.8205445 94.4707047,30.7145385 100.43362,24.1139308 Z M114.610768,35.767642 L116.311616,34.0667942 C116.914137,35.1172883 116.914137,36.4181966 116.311616,37.4686907 L114.610768,35.767642 Z M113.349049,37.0291593 L115.049897,38.730208 C113.999604,39.3327298 112.698495,39.3327298 111.648202,38.730208 L113.349049,37.0291593 Z M111.648202,32.8052769 C112.698495,32.2027551 113.999604,32.2027551 115.049897,32.8052769 L113.349049,34.5059236 L111.648202,32.8052769 Z M112.087532,35.767642 L110.386483,37.4686907 C109.783962,36.4181966 109.783962,35.1172883 110.386483,34.0667942 L112.087532,35.767642 Z M125.002962,22.8522125 L122.600914,25.2542605 L119.341709,21.995257 L118.71085,22.6259151 L121.970054,25.8851197 L120.778074,27.0770998 L119.762349,26.0607714 L119.13149,26.6916306 L120.147416,27.707758 L115.700854,32.1543202 C114.276748,31.2270236 112.421552,31.2270236 110.997446,32.1543202 L106.550683,27.707557 L107.56681,26.6916306 L106.935951,26.0607714 L105.920025,27.0768988 L104.728045,25.8851197 L107.987249,22.6259151 L107.35639,21.995257 L104.097185,25.2542605 L101.695338,22.8522125 C108.295946,16.8892972 118.402153,16.8892972 125.002962,22.8522125 Z M127.525996,22.8522125 L131.274373,19.1040369 L130.012856,17.8423185 L126.264479,21.5906952 C118.966289,14.9348195 107.73181,14.9348195 100.433821,21.5906952 L96.6854444,17.8423185 L95.423726,19.1040369 L99.1719017,22.8522125 C92.516026,30.1504029 92.516026,41.384881 99.1719017,48.6830714 L95.423726,52.431247 L96.6854444,53.6927644 L100.43362,49.9445888 C107.73181,56.6006654 118.966289,56.6004644 126.264479,49.9445888 L130.012856,53.6929654 L131.274373,52.431247 L127.525996,48.6830714 C134.181872,41.384881 134.182073,30.1506038 127.525996,22.8522125 Z" id="Crosshairs" transform="translate(113.348987, 35.767680) rotate(45.000000) translate(-113.348987, -35.767680) "></path>
            </g>
        </g>
    </g>
</svg>