<?xml version="1.0" encoding="utf-8"?>
<!-- Generator: Adobe Illustrator 22.1.0, SVG Export Plug-In . SVG Version: 6.00 Build 0)  -->
<svg version="1.1" id="Слой_1" xmlns="http://www.w3.org/2000/svg" xmlns:xlink="http://www.w3.org/1999/xlink" x="0px" y="0px"
	 viewBox="0 0 20 20" enable-background="new 0 0 20 20" xml:space="preserve">
<path id="back_1_" fill="#3B5998" d="M5,0h10c2.8,0,5,2.2,5,5v10c0,2.8-2.2,5-5,5H5c-2.8,0-5-2.2-5-5V5C0,2.2,2.2,0,5,0z"/>
<path id="Shape_1_" fill="#FFFFFF" d="M10.7,15.5v-5.4h1.5l0.2-1.9h-1.7l0-0.9c0-0.5,0-0.8,0.7-0.8h0.9V4.7h-1.5
	c-1.8,0-2.4,0.9-2.4,2.4v1.1H7.3v1.9h1.1v5.4H10.7z"/>
</svg>
