<?xml version="1.0" encoding="UTF-8"?>
<svg width="100px" height="71px" viewBox="0 0 100 71" version="1.1" xmlns="http://www.w3.org/2000/svg" xmlns:xlink="http://www.w3.org/1999/xlink">
    <defs>
        <radialGradient cx="50%" cy="50.3650923%" fx="50%" fy="50.3650923%" r="76.8933415%" gradientTransform="translate(0.500000,0.503651),scale(1.000000,0.705158),rotate(90.000000),scale(1.000000,0.944133),translate(-0.500000,-0.503651)" id="radialGradient-1">
            <stop stop-color="#373A4E" offset="0%"></stop>
            <stop stop-color="#FF1E7C" offset="54.5723447%"></stop>
            <stop stop-color="#373A4E" offset="100%"></stop>
        </radialGradient>
    </defs>
    <g id="Page-1" stroke="none" stroke-width="1" fill="none" fill-rule="evenodd">
        <g id="WELCOME_MOBILE" transform="translate(-197.000000, -535.000000)" fill="url(#radialGradient-1)">
            <path d="M247.00006,571.682191 C246.214861,571.682191 245.575661,571.042991 245.575661,570.257792 C245.575661,569.472592 246.214861,568.833793 247.00006,568.833793 C247.785259,568.833793 248.424459,569.472592 248.424459,570.257792 C248.424459,571.042991 247.785259,571.682191 247.00006,571.682191 Z M247.00006,576.031787 C243.816463,576.031787 241.226065,573.441789 241.226065,570.257792 C241.226065,567.074194 243.816463,564.483796 247.00006,564.483796 C247.709659,564.483796 248.410859,564.616196 249.084458,564.877396 C249.527658,565.048996 249.747258,565.547396 249.575658,565.990195 C249.403658,566.432595 248.905258,566.652995 248.463259,566.480995 C247.988459,566.296995 247.49646,566.203795 247.00006,566.203795 C244.764862,566.203795 242.946063,568.022594 242.946063,570.257792 C242.946063,572.49299 244.764862,574.311789 247.00006,574.311789 C249.235258,574.311789 251.054057,572.49299 251.054057,570.257792 C251.054057,569.761392 250.960857,569.268993 250.776857,568.794993 C250.605257,568.352193 250.825257,567.854194 251.267657,567.682194 C251.710856,567.510594 252.208856,567.730594 252.380856,568.173393 C252.641655,568.846593 252.774055,569.547792 252.774055,570.257792 C252.774055,573.441789 250.183657,576.031787 247.00006,576.031787 Z M247.00006,580.945823 C246.134861,580.945823 245.269661,580.839823 244.427662,580.630623 C243.966862,580.516624 243.685663,580.050224 243.800063,579.589024 C243.914462,579.128225 244.381262,578.847425 244.841662,578.961825 C245.548461,579.137025 246.274861,579.225825 247.00006,579.225825 C251.944856,579.225825 255.968053,575.203028 255.968053,570.257832 C255.968053,565.313036 251.944856,561.289839 247.00006,561.289839 C242.054864,561.289839 238.032067,565.313036 238.032067,570.257832 C238.032067,573.05383 239.308466,575.641827 241.533664,577.359426 C241.909664,577.649426 241.979264,578.189425 241.689264,578.565425 C241.399264,578.941025 240.859265,579.011425 240.482865,578.721025 C237.832467,576.675427 236.312069,573.591029 236.312069,570.257832 C236.312069,564.364637 241.106465,559.56984 247.00006,559.56984 C252.893255,559.56984 257.688051,564.364637 257.688051,570.257832 C257.688051,576.151427 252.893255,580.945823 247.00006,580.945823 Z M247.00006,585.859899 C238.397267,585.859899 231.398072,578.860705 231.398072,570.257912 C231.398072,567.155514 232.311272,564.155517 234.03967,561.581519 C234.30447,561.187119 234.83887,561.082719 235.233269,561.347119 C235.627269,561.611919 235.732469,562.145918 235.467269,562.540318 C233.93047,564.829516 233.117671,567.498314 233.117671,570.257912 C233.117671,577.912306 239.345266,584.139901 247.00006,584.139901 C251.281257,584.139901 255.261253,582.198302 257.919651,578.813105 C258.213251,578.439505 258.753651,578.375105 259.12725,578.667905 C259.50045,578.961105 259.56565,579.501904 259.27245,579.875504 C256.285253,583.678301 251.812456,585.859899 247.00006,585.859899 Z M260.617609,576.759307 C260.507609,576.759307 260.395609,576.738107 260.287609,576.692907 C259.84921,576.510907 259.64161,576.007707 259.82401,575.568908 C260.526009,573.880109 260.882009,572.09331 260.882009,570.258112 C260.882009,562.603318 254.654414,556.376123 247.00002,556.376123 C243.706023,556.376123 240.508425,557.558522 237.996027,559.70572 C237.634427,560.01452 237.091628,559.97172 236.783228,559.61052 C236.474828,559.249721 236.517228,558.706921 236.878028,558.398521 C239.702026,555.984923 243.296823,554.656124 247.00002,554.656124 C255.602813,554.656124 262.602008,561.654919 262.602008,570.258112 C262.602008,572.32091 262.201208,574.330109 261.411608,576.229307 C261.274809,576.559707 260.954409,576.759307 260.617609,576.759307 Z M247.00006,590.773775 C239.243266,590.773775 232.233272,586.463379 228.704475,579.523784 C228.489275,579.100585 228.658075,578.582985 229.081274,578.367785 C229.504474,578.152985 230.022474,578.321385 230.237673,578.744585 C233.471271,585.10378 239.894066,589.054177 247.00006,589.054177 C257.364452,589.054177 265.796045,580.622184 265.796045,570.257792 C265.796045,562.938198 261.488048,556.236603 254.817254,553.171805 L251.072457,551.911806 C249.727258,551.613007 248.357259,551.461807 247.00006,551.461807 C236.635668,551.461807 228.204075,559.8938 228.204075,570.257792 C228.204075,571.89979 228.420475,573.539389 228.848075,575.130188 C228.971674,575.588988 228.699675,576.060587 228.240875,576.183787 C227.783275,576.307787 227.310476,576.034987 227.187276,575.576588 C226.720476,573.840189 226.484076,572.05059 226.484076,570.257792 C226.484076,558.945401 235.687269,549.741808 247.00006,549.741808 C248.498059,549.741808 250.009658,549.910608 251.492056,550.243008 L251.578056,550.267008 L255.491653,551.589007 C262.796047,554.923804 267.516044,562.252198 267.516044,570.257792 C267.516044,581.570583 258.312451,590.773775 247.00006,590.773775 Z M224.000478,562.476318 C223.899678,562.476318 223.797279,562.458318 223.697279,562.420718 C223.252879,562.253118 223.028479,561.757119 223.196079,561.312719 C226.912876,551.452727 236.478868,544.827932 247.00006,544.827932 C256.350453,544.827932 264.929246,549.954328 269.388442,558.207121 C269.614442,558.625121 269.458442,559.146721 269.040842,559.372321 C268.622043,559.59872 268.100843,559.44272 267.875643,559.024721 C263.716847,551.328727 255.717653,546.547931 247.00006,546.547931 C237.190468,546.547931 228.271275,552.725126 224.805278,561.919118 C224.675278,562.263918 224.348078,562.476318 224.000478,562.476318 Z M255.213733,594.274333 C254.860134,594.274333 254.528534,594.054733 254.403334,593.702333 C254.244534,593.254733 254.478134,592.763134 254.925334,592.603934 C264.366526,589.245137 270.710121,580.265144 270.710121,570.257952 C270.710121,567.638354 270.282921,565.061956 269.440522,562.600358 C269.286922,562.151158 269.526522,561.662359 269.976122,561.508359 C270.424921,561.355159 270.914121,561.594359 271.068121,562.043558 C271.97172,564.684756 272.43012,567.448354 272.43012,570.257952 C272.43012,580.991143 265.627325,590.622336 255.501733,594.224333 C255.406533,594.258333 255.309333,594.274333 255.213733,594.274333 Z M247.00006,595.687811 C232.977671,595.687811 221.57008,584.279821 221.57008,570.257832 C221.57008,568.606633 221.73208,566.947834 222.05168,565.327436 C222.14328,564.861436 222.59568,564.557836 223.061279,564.650236 C223.527279,564.741836 223.830879,565.194236 223.738879,565.660235 C223.441279,567.171034 223.290079,568.718233 223.290079,570.257832 C223.290079,583.331421 233.92607,593.967813 247.00006,593.967813 C248.390459,593.967813 249.786058,593.845813 251.148457,593.604213 C251.615656,593.521413 252.062056,593.833413 252.145256,594.301013 C252.228056,594.768612 251.916056,595.215012 251.448456,595.297812 C249.987658,595.556612 248.490859,595.687811 247.00006,595.687811 Z M276.231077,567.265394 C275.805877,567.265394 275.436277,566.950194 275.379477,566.516995 C273.520279,552.331406 261.319889,541.633815 246.9999,541.633815 C246.270301,541.633815 245.531901,541.661815 244.805502,541.717015 C244.327502,541.752215 243.918702,541.398615 243.882702,540.925015 C243.846703,540.451416 244.201102,540.038216 244.674702,540.002216 C245.445101,539.943816 246.227101,539.914216 246.9999,539.914216 C262.180288,539.914216 275.113878,551.255007 277.085076,566.293395 C277.146676,566.764595 276.814676,567.196594 276.344277,567.257794 C276.306277,567.262994 276.268677,567.265394 276.231077,567.265394 Z M247.00006,600.601888 C241.250065,600.601888 235.648869,598.977489 230.800873,595.905091 C230.399673,595.651091 230.280473,595.119492 230.534873,594.718292 C230.788873,594.317093 231.320473,594.198693 231.721672,594.452292 C236.293669,597.35029 241.576864,598.881889 247.00006,598.881889 C262.685247,598.881889 275.525237,586.121499 275.622037,570.436712 C275.624837,569.961912 276.008437,569.579912 276.487236,569.582312 C276.962036,569.585112 277.344436,569.972712 277.341636,570.447512 C277.239236,587.074698 263.628047,600.601888 247.00006,600.601888 Z M227.996555,593.641333 C227.800555,593.641333 227.603756,593.574533 227.442156,593.438533 C220.587361,587.646138 216.655764,579.197345 216.655764,570.258152 C216.655764,563.298157 219.082162,556.493363 223.487359,551.098567 C227.829755,545.779771 233.88935,542.053774 240.550545,540.606176 C241.014145,540.505776 241.472944,540.799775 241.573344,541.263775 C241.674544,541.727775 241.379744,542.185774 240.915745,542.286574 C227.855355,545.124972 218.375763,556.888562 218.375763,570.258152 C218.375763,578.689745 222.08496,586.659739 228.552155,592.124534 C228.914954,592.431334 228.960554,592.973734 228.654155,593.336533 C228.483755,593.537733 228.240955,593.641333 227.996555,593.641333 Z M281.025993,551.445847 C280.729593,551.445847 280.441193,551.292647 280.281593,551.017447 C277.581196,546.365051 274.005198,542.391854 269.653202,539.207457 C269.270002,538.927057 269.186402,538.388657 269.467202,538.005458 C269.747202,537.622258 270.285201,537.538658 270.668801,537.819458 C275.213997,541.145055 278.948794,545.295052 281.769192,550.154248 C282.007592,550.565048 281.867592,551.091047 281.457192,551.329447 C281.321193,551.408647 281.172793,551.445847 281.025993,551.445847 Z M212.973927,551.446047 C212.827127,551.446047 212.678727,551.408847 212.542728,551.329647 C212.132328,551.091247 211.992328,550.565248 212.230728,550.154448 C219.415522,537.775658 232.738311,530.086064 246.9999,530.086064 C254.102294,530.086064 261.089489,531.975262 267.205484,535.54966 C267.615484,535.789259 267.753883,536.316059 267.513884,536.726059 C267.274684,537.136458 266.747084,537.274058 266.337885,537.034858 C260.484689,533.613661 253.797895,531.805663 246.9999,531.805663 C233.349111,531.805663 220.596321,539.167257 213.718327,551.017647 C213.558727,551.292847 213.270327,551.446047 212.973927,551.446047 Z M275.619757,537.430258 C275.422557,537.430258 275.224957,537.363058 275.062558,537.225058 C267.231364,530.561864 257.264972,526.891866 247.00018,526.891866 C244.421382,526.891866 241.831784,527.122666 239.303386,527.577866 C238.836187,527.661866 238.388587,527.351066 238.304587,526.883466 C238.220187,526.415867 238.530987,525.969067 238.998586,525.884667 C241.627384,525.411868 244.319382,525.171868 247.00018,525.171868 C257.672971,525.171868 268.035363,528.987465 276.177757,535.915459 C276.538956,536.223059 276.582956,536.765859 276.275357,537.127458 C276.104957,537.327458 275.863357,537.430258 275.619757,537.430258 Z M218.380563,537.430258 C218.136963,537.430258 217.894963,537.327858 217.724963,537.127858 C217.417364,536.765859 217.460964,536.223059 217.822563,535.915459 C222.793359,531.685863 228.722955,528.534665 234.97055,526.802267 C235.428949,526.675067 235.902149,526.943466 236.029349,527.401466 C236.156149,527.859066 235.887749,528.332665 235.430149,528.459465 C229.422154,530.125464 223.718559,533.156661 218.937362,537.225458 C218.775363,537.363058 218.577363,537.430258 218.380563,537.430258 Z M224.315118,527.535906 C224.005118,527.535906 223.705919,527.367906 223.552319,527.073906 C223.332319,526.653107 223.495519,526.133507 223.915918,525.913507 C230.995513,522.21351 238.977906,520.257912 246.9999,520.257912 C249.070298,520.257912 251.161097,520.387512 253.213895,520.643511 C253.685095,520.701911 254.019894,521.131511 253.961094,521.602711 C253.902294,522.07431 253.471895,522.41031 253.001495,522.34991 C251.018697,522.10311 248.999498,521.97791 246.9999,521.97791 C239.253906,521.97791 231.547512,523.865909 224.712718,527.437906 C224.585518,527.504306 224.449118,527.535906 224.315118,527.535906 Z M269.685202,527.535906 C269.551202,527.535906 269.414802,527.504306 269.287602,527.437906 C265.393205,525.402708 261.234009,523.911909 256.925212,523.00791 C256.460412,522.91031 256.162413,522.45431 256.260013,521.98951 C256.357613,521.524711 256.813612,521.227111 257.278412,521.324711 C261.741208,522.26111 266.050005,523.805109 270.084402,525.913507 C270.505201,526.133907 270.668001,526.653107 270.448001,527.074306 C270.294801,527.367906 269.995202,527.535906 269.685202,527.535906 Z M268.354723,598.06497 C268.101523,598.06497 267.850723,597.95377 267.680723,597.73977 C267.385524,597.36777 267.447524,596.826971 267.819523,596.531771 C275.902317,590.112976 280.537913,580.536984 280.537913,570.257792 C280.537913,551.765007 265.493125,536.719819 246.99994,536.719819 C241.831944,536.719819 236.871148,537.871018 232.253552,540.141416 C231.827952,540.351416 231.311953,540.175416 231.102353,539.749016 C230.892753,539.323017 231.068353,538.807417 231.494752,538.598217 C236.349949,536.210619 241.566744,534.99982 246.99994,534.99982 C266.441124,534.99982 282.257912,550.816607 282.257912,570.257792 C282.257912,581.064583 277.385116,591.131375 268.889122,597.87857 C268.731123,598.00417 268.542323,598.06497 268.354723,598.06497 Z M247.00006,605.515924 C232.027272,605.515924 218.646883,596.007131 213.703687,581.854743 C213.547287,581.406343 213.783687,580.915943 214.232086,580.759143 C214.680886,580.602744 215.170885,580.839543 215.327685,581.287543 C220.029682,594.750732 232.758071,603.795925 247.00006,603.795925 C253.224055,603.795925 259.30645,602.068726 264.589646,598.801129 C264.992846,598.551529 265.523645,598.675929 265.773245,599.080329 C266.023245,599.483928 265.898445,600.013928 265.494045,600.263928 C259.93925,603.699525 253.543655,605.515924 247.00006,605.515924 Z M213.408887,578.533905 C213.014087,578.533905 212.658487,578.260305 212.569688,577.859106 C212.020488,575.369508 211.742088,572.81191 211.742088,570.257912 C211.742088,558.258721 217.778883,547.18713 227.890475,540.640735 C228.288475,540.383136 228.821675,540.496336 229.079674,540.895535 C229.337674,541.293935 229.223674,541.826335 228.825275,542.084334 C219.205282,548.312329 213.462087,558.844321 213.462087,570.257912 C213.462087,572.68751 213.726887,575.119908 214.249686,577.488706 C214.351686,577.952306 214.058886,578.411105 213.594887,578.513505 C213.532487,578.527105 213.470087,578.533905 213.408887,578.533905 Z M247.00006,620.257912 C238.978066,620.257912 230.996073,618.301913 223.916078,614.602316 C223.495279,614.382716 223.332479,613.862717 223.552479,613.441917 C223.772079,613.021118 224.291678,612.858318 224.712878,613.077918 C231.547672,616.649915 239.254066,618.537913 247.00006,618.537913 C249.988858,618.537913 252.986455,618.259913 255.909253,617.712314 C256.375252,617.626314 256.825252,617.932314 256.912852,618.399513 C257.000052,618.865913 256.692852,619.315513 256.226053,619.403112 C253.198855,619.970312 250.094858,620.257912 247.00006,620.257912 Z M260.01217,618.505593 C259.63457,618.505593 259.28857,618.255193 259.18337,617.873194 C259.05737,617.415594 259.32697,616.941994 259.78497,616.815995 C263.075767,615.911195 266.272965,614.653596 269.287762,613.077998 C269.708962,612.857998 270.228161,613.020798 270.448161,613.441597 C270.668161,613.862397 270.504961,614.381996 270.084162,614.601996 C266.961364,616.234395 263.649367,617.537194 260.240569,618.474793 C260.164169,618.495593 260.08737,618.505593 260.01217,618.505593 Z M251.719576,610.14248 C251.290777,610.14248 250.919577,609.82168 250.867177,609.38488 C250.810377,608.913681 251.146777,608.485281 251.618376,608.428881 C263.516767,606.997682 274.231958,599.920888 280.281553,589.498496 C280.519953,589.087297 281.046753,588.948097 281.457152,589.186097 C281.867952,589.424896 282.007552,589.950896 281.769152,590.361696 C275.449957,601.248887 264.255566,608.641281 251.823576,610.13608 C251.788776,610.14048 251.753976,610.14248 251.719576,610.14248 Z M247.00006,610.4298 C232.738071,610.4298 219.415282,602.739806 212.230888,590.361416 C211.992488,589.950616 212.132088,589.424216 212.542888,589.185817 C212.953287,588.948217 213.480087,589.087017 213.718487,589.498216 C220.596081,601.348207 233.348871,608.709801 247.00006,608.709801 C247.14566,608.709801 247.29046,608.706601 247.43486,608.703401 L247.666059,608.698601 C247.671259,608.698201 247.676059,608.698201 247.680859,608.698201 C248.149259,608.698201 248.532459,609.073801 248.540459,609.5438 C248.548459,610.0186 248.170059,610.4102 247.695259,610.4182 L247.47366,610.423 C247.31646,610.4262 247.15846,610.4298 247.00006,610.4298 Z M235.200829,613.745237 C235.12483,613.745237 235.04763,613.735237 234.97043,613.713637 C228.723235,611.981238 222.793239,608.830041 217.822443,604.600444 C217.460844,604.292845 217.417244,603.750045 217.724843,603.388045 C218.032443,603.026846 218.574843,602.982846 218.937242,603.290445 C223.718839,607.359242 229.422034,610.39044 235.430029,612.056038 C235.887629,612.183238 236.156029,612.656838 236.029229,613.114838 C235.923629,613.495637 235.577629,613.745237 235.200829,613.745237 Z M247.00006,615.343876 C244.318862,615.343876 241.626864,615.104276 238.998466,614.631076 C238.530867,614.547076 238.220067,614.099877 238.304467,613.632277 C238.388867,613.165077 238.836067,612.854278 239.303266,612.938278 C241.831264,613.393477 244.420862,613.623877 247.00006,613.623877 C257.264852,613.623877 267.231244,609.95388 275.062838,603.290285 C275.424837,602.982686 275.967237,603.026686 276.275237,603.387885 C276.582836,603.749885 276.539236,604.292685 276.177637,604.600684 C268.035243,611.528279 257.673251,615.343876 247.00006,615.343876 Z" id="SYMBOL/FINGERPRINT/MOBILE" transform="translate(247.000000, 570.257912) rotate(90.000000) translate(-247.000000, -570.257912) "></path>
        </g>
    </g>
</svg>