<?xml version="1.0" encoding="utf-8"?>
<!-- Generator: Adobe Illustrator 22.1.0, SVG Export Plug-In . SVG Version: 6.00 Build 0)  -->
<svg version="1.1" id="Слой_1" xmlns="http://www.w3.org/2000/svg" xmlns:xlink="http://www.w3.org/1999/xlink" x="0px" y="0px"
	 viewBox="0 0 20 20" enable-background="new 0 0 20 20" xml:space="preserve">
<path id="back" fill="#FF1E7C" d="M5,0.1h10c2.8,0,5,2.2,5,5v10c0,2.8-2.2,5-5,5H5c-2.8,0-5-2.2-5-5v-10C0,2.3,2.2,0.1,5,0.1z"/>
<path id="info_outline---material" fill="#FFFFFF" d="M9.5,8.6v-1h1v1H9.5z M10,14.1c0.7,0,1.4-0.2,2-0.6c0.6-0.4,1.1-0.8,1.4-1.4
	c0.4-0.6,0.6-1.3,0.6-2s-0.2-1.4-0.6-2C13.1,7.5,12.6,7,12,6.6c-0.6-0.4-1.3-0.6-2-0.6S8.6,6.3,8,6.6C7.4,7,6.9,7.5,6.5,8.1
	C6.2,8.7,6,9.4,6,10.1s0.2,1.4,0.6,2c0.4,0.6,0.8,1.1,1.4,1.4C8.6,13.9,9.3,14.1,10,14.1z M10,5.1c0.9,0,1.8,0.2,2.5,0.7
	c0.8,0.4,1.3,1,1.8,1.8c0.5,0.8,0.7,1.6,0.7,2.5s-0.2,1.8-0.7,2.5c-0.4,0.8-1,1.3-1.8,1.8c-0.8,0.5-1.6,0.7-2.5,0.7
	s-1.8-0.2-2.5-0.7c-0.8-0.4-1.3-1-1.8-1.8C5.2,11.9,5,11,5,10.1c0-0.9,0.2-1.7,0.7-2.5c0.4-0.8,1-1.4,1.8-1.8
	C8.3,5.3,9.1,5.1,10,5.1z M9.5,12.6v-3h1v3H9.5z"/>
</svg>
