<?xml version="1.0" encoding="UTF-8"?>
<svg width="247px" height="103px" viewBox="0 0 247 103" version="1.1" xmlns="http://www.w3.org/2000/svg" xmlns:xlink="http://www.w3.org/1999/xlink">
    <!-- Generator: Sketch 51.2 (57519) - http://www.bohemiancoding.com/sketch -->
    <title>LOGO</title>
    <desc>Created with Sketch.</desc>
    <defs></defs>
    <g id="Page-1" stroke="none" stroke-width="1" fill="none" fill-rule="evenodd">
        <g id="WELCOME" transform="translate(-679.000000, -244.000000)">
            <g id="WELCOME/PROMPT" transform="translate(413.000000, 159.000000)">
                <g id="LOGO" transform="translate(263.000000, 84.000000)">
                    <path d="M32.1452514,43.4022346 L34.0335196,43.4022346 C40.3519553,43.4022346 43.3296089,39.1173184 43.3296089,33.8882682 C43.3296089,28.5865922 40.3519553,24.2290503 34.0335196,24.2290503 L25.2458101,24.2290503 L25.2458101,34.9776536 C25.2458101,42.2402235 26.1173184,43.4022346 32.1452514,43.4022346 Z M25.2458101,21.5418994 L31.7094972,21.5418994 C37.1564246,21.5418994 39.698324,17.9106145 39.698324,13.4078212 C39.698324,8.90502793 37.1564246,5.20111732 31.7094972,5.20111732 L25.2458101,5.20111732 L25.2458101,21.5418994 Z M12.5363128,46.0893855 L12.5363128,44.5642458 C18.5642458,44.5642458 19.4357542,43.3296089 19.4357542,36.0670391 L19.4357542,12.4636872 C19.4357542,5.20111732 18.5642458,4.03910615 12.5363128,4.03910615 L12.5363128,2.51396648 L32.0726257,2.51396648 C41.2960894,2.51396648 46.0893855,7.37988827 46.0893855,13.4078212 C46.0893855,17.1843575 43.7653631,20.452514 40.424581,22.4134078 C46.0167598,24.1564246 49.7206704,28.6592179 49.7206704,33.8882682 C49.7206704,40.6424581 44.2011173,46.0893855 34.1061453,46.0893855 L12.5363128,46.0893855 Z M82.1117318,47.3240223 C68.7486034,47.3240223 57.8547486,36.9385475 57.8547486,24.301676 C57.8547486,11.6648045 68.7486034,1.27932961 82.1117318,1.27932961 C95.4022346,1.27932961 106.296089,11.6648045 106.296089,24.301676 C106.296089,36.9385475 95.4022346,47.3240223 82.1117318,47.3240223 Z M82.1117318,44.4189944 C94.603352,44.4189944 99.396648,33.3072626 99.396648,24.301676 C99.396648,15.2960894 94.603352,4.11173184 82.1117318,4.11173184 C69.547486,4.11173184 64.7541899,15.2960894 64.7541899,24.301676 C64.7541899,33.3072626 69.547486,44.4189944 82.1117318,44.4189944 Z M151.396648,47.3240223 L121.837989,10.7932961 L121.837989,36.0670391 C121.837989,52.8571072 121.385475,58.3968842 127.413408,58.3968842 L128.810056,59.9220239 L112.251397,59.9220239 L113.648045,58.3968842 C119.675978,58.3968842 119.150838,52.8571072 119.150838,36.0670391 L119.150838,12.4636872 C119.150838,5.20111732 118.27933,4.03910615 112.251397,4.03910615 L112.251397,2.51396648 L122.49162,2.51396648 L150.379888,37.0837989 L150.379888,12.4636872 C150.379888,5.20111732 149.50838,4.03910615 143.480447,4.03910615 L143.480447,2.51396648 L160.039106,2.51396648 L160.039106,4.03910615 C154.011173,4.03910615 153.067039,5.20111732 153.067039,12.4636872 L153.067039,47.3240223 L151.396648,47.3240223 Z M164.905028,46.0893855 L164.905028,44.5642458 C170.932961,44.5642458 171.804469,43.3296089 171.804469,36.0670391 L171.804469,12.4636872 C171.804469,5.20111732 170.932961,4.03910615 164.905028,4.03910615 L164.905028,2.51396648 L184.586592,2.51396648 C201.50838,2.51396648 208.843575,12.3184358 208.843575,24.301676 C208.843575,36.2849162 201.50838,46.0893855 184.586592,46.0893855 L164.905028,46.0893855 Z M184.368715,43.4022346 L184.659218,43.4022346 C198.821229,43.4022346 201.871508,32.7988827 201.871508,24.301676 C201.871508,15.8044693 198.821229,5.20111732 184.659218,5.20111732 L177.614525,5.20111732 L177.614525,34.9776536 C177.614525,42.2402235 178.413408,43.4022346 184.368715,43.4022346 Z" id="BOND" fill="#FFFDFE"></path>
                    <path d="M43.2625698,101.955307 L43.2625698,100.430168 C49.2905028,100.430168 50.1620112,99.1955307 50.1620112,91.9329609 L50.1620112,68.3296089 C50.1620112,61.0670391 49.2905028,59.9050279 43.2625698,59.9050279 L43.2625698,58.3798883 L62.9441341,58.3798883 C79.8659218,58.3798883 87.2011173,68.1843575 87.2011173,80.1675978 C87.2011173,92.150838 79.8659218,101.955307 62.9441341,101.955307 L43.2625698,101.955307 Z M62.726257,99.2681564 L63.0167598,99.2681564 C77.1787709,99.2681564 80.2290503,88.6648045 80.2290503,80.1675978 C80.2290503,71.6703911 77.1787709,61.0670391 63.0167598,61.0670391 L55.972067,61.0670391 L55.972067,90.8435754 C55.972067,98.1061453 56.7709497,99.2681564 62.726257,99.2681564 Z M120.463687,103.189944 C107.100559,103.189944 96.2067039,92.8044693 96.2067039,80.1675978 C96.2067039,67.5307263 107.100559,57.1452514 120.463687,57.1452514 C133.75419,57.1452514 144.648045,67.5307263 144.648045,80.1675978 C144.648045,92.8044693 133.75419,103.189944 120.463687,103.189944 Z M120.463687,100.284916 C132.955307,100.284916 137.748603,89.1731844 137.748603,80.1675978 C137.748603,71.1620112 132.955307,59.9776536 120.463687,59.9776536 C107.899441,59.9776536 103.106145,71.1620112 103.106145,80.1675978 C103.106145,89.1731844 107.899441,100.284916 120.463687,100.284916 Z M176.748603,103.189944 C163.385475,103.189944 152.49162,92.8044693 152.49162,80.1675978 C152.49162,67.5307263 163.385475,57.1452514 176.748603,57.1452514 C190.039106,57.1452514 200.932961,67.5307263 200.932961,80.1675978 C200.932961,92.8044693 190.039106,103.189944 176.748603,103.189944 Z M176.748603,100.284916 C189.240223,100.284916 194.03352,89.1731844 194.03352,80.1675978 C194.03352,71.1620112 189.240223,59.9776536 176.748603,59.9776536 C164.184358,59.9776536 159.391061,71.1620112 159.391061,80.1675978 C159.391061,89.1731844 164.184358,100.284916 176.748603,100.284916 Z M219.597765,80.2402235 L225.988827,80.2402235 C232.307263,80.2402235 235.212291,75.9553073 235.212291,70.6536313 C235.212291,65.424581 232.307263,61.0670391 225.988827,61.0670391 L219.597765,61.0670391 L219.597765,80.2402235 Z M206.888268,101.955307 L206.888268,100.430168 C212.916201,100.430168 213.787709,99.1955307 213.787709,91.9329609 L213.787709,68.3296089 C213.787709,61.0670391 212.916201,59.9050279 206.888268,59.9050279 L206.888268,58.3798883 L226.061453,58.3798883 C236.156425,58.3798883 241.675978,63.8994413 241.675978,70.6536313 C241.675978,76.972067 236.955307,81.9832402 228.748603,82.8547486 L235.865922,91.2067039 C240.150838,96.2905028 245.01676,99.9217877 249.374302,100.430168 L249.374302,101.955307 L237.391061,101.955307 L223.011173,82.8547486 L219.597765,82.8547486 L219.597765,91.9329609 C219.597765,99.1955307 220.469274,100.430168 226.497207,100.430168 L226.497207,101.955307 L206.888268,101.955307 Z" id="DOOR" fill="#FFFDFE"></path>
                    <path d="M11.9773746,85.9023861 L10.1198327,85.9023861 L10.1198327,78.60909 C10.1198327,78.374452 10.0351036,78.1724056 9.86564276,78.0029448 L8.88798913,77.1035034 C8.69245743,76.9340426 8.48389341,76.8493135 8.26229081,76.8493135 C8.04068821,76.8493135 7.83212419,76.9340426 7.63659248,77.1035034 L6.65893885,78.0029448 C6.48947804,78.1984765 6.40474891,78.3940052 6.40474891,78.5895369 L6.40474891,85.9023861 L4.54720701,85.9023861 L4.54720701,78.60909 C4.54720701,78.3874874 4.45596025,78.185441 4.27346399,78.0029448 L3.31536343,77.1035034 L4.6254193,75.8716598 L5.19245841,76.3995928 C5.34888377,76.5560182 5.43687172,76.6765942 5.45642489,76.7613246 C5.47597806,76.8460551 5.52486025,76.8884196 5.60307293,76.8884196 C5.64217927,76.8884196 5.68128503,76.8590903 5.72039137,76.8004308 C5.75949771,76.7417713 5.81489753,76.6635598 5.88659248,76.5657939 C5.95828744,76.4680281 6.05279301,76.347452 6.17011204,76.2040621 C6.28743106,76.0606722 6.43733645,75.8977315 6.61983271,75.7152353 C6.8414353,75.5066681 7.09562271,75.3535039 7.38240254,75.2557381 C7.66918237,75.1579722 7.96247553,75.10909 8.26229081,75.10909 C8.60121243,75.10909 8.94012896,75.1710075 9.27905058,75.2948442 C9.6179722,75.4186809 9.92430061,75.6109509 10.198045,75.8716598 L11.1756986,76.7906543 C11.449443,77.0383277 11.6514894,77.3185857 11.7818439,77.6314364 C11.9121983,77.9442871 11.9773746,78.2636508 11.9773746,78.5895369 L11.9773746,85.9023861 Z M21.773464,79.9778051 C21.773464,80.3167267 21.7050289,80.6328316 21.5681567,80.9261291 C21.4312845,81.2194267 21.2455322,81.4768729 21.0108942,81.6984755 C20.7762561,81.9200781 20.499257,82.096054 20.1798886,82.2264084 C19.8605201,82.3567629 19.5183448,82.4219392 19.1533523,82.4219392 L16.1812852,82.4219392 L16.1812852,82.8130006 C16.1812852,83.0215678 16.272532,83.2040613 16.4550282,83.3604867 L17.0416204,83.9079727 C17.2110812,84.0774335 17.4261629,84.1621626 17.6868718,84.1621626 L20.5611735,84.1621626 L20.5611735,85.9023861 L17.6868718,85.9023861 C17.3349147,85.9023861 16.9862218,85.8437275 16.6407824,85.7264084 C16.2953431,85.6090894 15.9922735,85.4200783 15.7315646,85.1593693 L15.1254193,84.5727772 C14.590966,84.0774302 14.3237433,83.5169144 14.3237433,82.8912129 L14.3237433,78.5895369 C14.3237433,78.2636508 14.3921784,77.9442871 14.5290506,77.6314364 C14.6659228,77.3185857 14.8647104,77.0383277 15.1254193,76.7906543 L16.1030729,75.8716598 C16.3637819,75.6239864 16.6635927,75.438234 17.0025143,75.3143973 C17.3414359,75.1905605 17.6868701,75.1286431 18.0388271,75.1286431 C18.3907842,75.1286431 18.7362183,75.1905605 19.07514,75.3143973 C19.4140616,75.438234 19.7138724,75.6239864 19.9745813,75.8716598 L20.971788,76.7906543 C21.232497,77.0383277 21.4312845,77.3185857 21.5681567,77.6314364 C21.7050289,77.9442871 21.773464,78.2636508 21.773464,78.5895369 L21.773464,79.9778051 Z M19.896369,78.60909 C19.896369,78.374452 19.8116399,78.1724056 19.6421791,78.0029448 L18.6840785,77.1035034 C18.4885468,76.9340426 18.2734652,76.8493135 18.0388271,76.8493135 C17.8172245,76.8493135 17.6086605,76.9340426 17.4131288,77.1035034 L16.4550282,78.0029448 C16.272532,78.185441 16.1812852,78.3874874 16.1812852,78.60909 L16.1812852,80.6817157 L19.1533523,80.6817157 C19.348884,80.6817157 19.521601,80.6197983 19.6715087,80.4959615 C19.8214163,80.3721248 19.896369,80.2189606 19.896369,80.0364643 L19.896369,78.60909 Z M30.8656428,85.9023861 L29.0081009,85.9023861 L29.0081009,82.9889783 C29.0081009,82.7543402 28.9233717,82.5522938 28.7539109,82.382833 L27.7958104,81.4833917 C27.6133141,81.3139309 27.4014913,81.2292017 27.1603355,81.2292017 C26.9191797,81.2292017 26.7073569,81.3139309 26.5248606,81.4833917 L25.547207,82.382833 C25.3777462,82.5783647 25.2930171,82.7804111 25.2930171,82.9889783 L25.2930171,85.9023861 L23.4354752,85.9023861 L23.4354752,82.9694252 C23.4354752,82.643539 23.5006514,82.3241754 23.6310059,82.0113246 C23.7613604,81.6984739 23.9634068,81.418216 24.2371511,81.1705425 L24.6477657,80.7794811 C24.7911556,80.6491266 24.9149905,80.5709151 25.019274,80.5448442 C25.1235576,80.5187733 25.1952515,80.4992204 25.2343578,80.486185 C25.3516769,80.486185 25.4103355,80.4470792 25.4103355,80.3688665 C25.4103355,80.2776184 25.3516769,80.231995 25.2343578,80.231995 C25.1952515,80.231995 25.1235576,80.215701 25.019274,80.1831124 C24.9149905,80.1505237 24.7911556,80.0690534 24.6477657,79.9386989 L24.2371511,79.5671906 C23.7026978,79.0718436 23.4354752,78.5048102 23.4354752,77.8660733 L23.4354752,75.4610453 L25.2930171,75.4610453 L25.2930171,77.807414 C25.2930171,77.9899103 25.3777462,78.1658862 25.547207,78.335347 L26.5248606,79.2347883 C26.7073569,79.4042491 26.9191797,79.4889783 27.1603355,79.4889783 C27.4014913,79.4889783 27.6133141,79.4042491 27.7958104,79.2347883 L28.7539109,78.335347 C28.9233717,78.1658862 29.0081009,77.9899103 29.0081009,77.807414 L29.0081009,75.4610453 L30.8656428,75.4610453 L30.8656428,77.8660733 C30.8656428,78.1658885 30.7972077,78.4656993 30.6603355,78.7655146 C30.5234633,79.0653299 30.3311933,79.3325525 30.0835199,79.5671906 L29.594693,79.9973582 C29.4904095,80.1016417 29.3861275,80.166818 29.2818439,80.1928889 C29.1775603,80.2189598 29.1058664,80.231995 29.0667601,80.231995 C28.9624765,80.231995 28.9103355,80.2776184 28.9103355,80.3688665 C28.9103355,80.4470792 28.9624765,80.486185 29.0667601,80.486185 C29.1058664,80.486185 29.1775603,80.4992202 29.2818439,80.5252911 C29.3861275,80.551362 29.4904095,80.6165383 29.594693,80.7208219 L30.0835199,81.1705425 C30.3442288,81.418216 30.5430164,81.6984739 30.6798886,82.0113246 C30.8167608,82.3241754 30.8851958,82.643539 30.8851958,82.9694252 L30.8656428,85.9023861 Z M35.7539109,86.3325537 L33.9941344,84.6900956 C33.7334254,84.4554576 33.5346379,84.1882349 33.3977657,83.8884196 C33.2608935,83.5886043 33.1924584,83.2887936 33.1924584,82.9889783 L33.1924584,77.2012688 L31.8628495,77.2012688 L31.8628495,75.4610453 L33.1924584,75.4610453 L33.1924584,73.7208219 L35.0500003,73.7208219 L35.0500003,75.4610453 L36.9075422,75.4610453 L36.9075422,77.2012688 L35.0500003,77.2012688 L35.0500003,82.9303191 C35.0500003,83.1128153 35.1347294,83.2887912 35.3041902,83.458252 L37.0639668,85.1007101 L35.7539109,86.3325537 Z" id="next" fill="#FF1E7C" transform="translate(20.189665, 80.026688) rotate(-10.000000) translate(-20.189665, -80.026688) "></path>
                </g>
            </g>
        </g>
    </g>
</svg>