<?xml version="1.0" encoding="UTF-8"?>
<svg width="590px" height="526px" viewBox="0 0 590 526" version="1.1" xmlns="http://www.w3.org/2000/svg" xmlns:xlink="http://www.w3.org/1999/xlink">
    <!-- Generator: Sketch 51.2 (57519) - http://www.bohemiancoding.com/sketch -->
    <title>BARREL</title>
    <desc>Created with Sketch.</desc>
    <defs>
        <rect id="path-1" x="0" y="0" width="590" height="526" rx="8"></rect>
        <polygon id="path-3" points="0 0.00843737661 1193.55057 0.00843737661 1193.55057 671.136573 0 671.136573"></polygon>
        <polygon id="path-5" points="0.895561689 0.65850613 1194.31685 0.65850613 1194.31685 671.674611 0.895561689 671.674611"></polygon>
        <polygon id="path-7" points="0.0994491178 0.563183736 672.307144 0.563183736 672.307144 1192.84119 0.0994491178 1192.84119"></polygon>
    </defs>
    <g id="Page-1" stroke="none" stroke-width="1" fill="none" fill-rule="evenodd">
        <g id="WELCOME" transform="translate(-425.000000, -180.000000)">
            <g id="WELCOME/PROMPT" transform="translate(413.000000, 159.000000)">
                <g id="BARREL" transform="translate(12.000000, 21.000000)">
                    <g>
                        <mask id="mask-2" fill="white">
                            <use xlink:href="#path-1"></use>
                        </mask>
                        <use id="Mask" fill="#323547" fill-rule="nonzero" xlink:href="#path-1"></use>
                        <g mask="url(#mask-2)">
                            <g transform="translate(-655.000000, -693.000000)">
                                <path d="M700.673327,1242.87762 C970.256502,1344.72466 1129.55355,1193.99022 1151,1111.49594 C1151,1111.49594 1091.33899,1196.6112 987.617424,1203.15597 C987.617424,1203.15597 735.413136,1254.81024 605.707927,881.320769 C605.707927,881.320769 541.376278,739.757202 613.876414,414.863338 L644.697504,302 L301,302 L301,726.92362 L301,842.064957 C365.916762,957.070638 507.629622,1169.94582 700.673327,1242.87762" id="Fill-1" fill="#373A4E"></path>
                                <g id="Group-5" stroke-width="1" fill="none" transform="translate(0.000000, 787.000000)">
                                    <mask id="mask-4" fill="white">
                                        <use xlink:href="#path-3"></use>
                                    </mask>
                                    <g id="Clip-4"></g>
                                    <path d="M948.333794,624.97108 C1210.7945,507.026014 1216.56055,288.399254 1173.29974,215.043987 C1173.29974,215.043987 1191.43335,317.162166 1122.82495,394.834554 C1122.82495,394.834554 981.310519,608.932044 625.303858,436.546272 C625.303858,436.546272 479.650674,381.89086 300.831126,101.413486 L242.691324,0.00843737661 L-0.000768807711,242.068805 L300.833689,542.120192 L382.352933,623.427243 C509.611111,658.915048 760.388498,709.429705 948.333794,624.97108" id="Fill-3" fill="#373A4E" mask="url(#mask-4)"></path>
                                </g>
                                <path d="M1242.84253,1354.26588 C1344.7943,1085.31876 1193.90487,926.393491 1111.32576,905 C1111.32576,905 1196.5311,964.518249 1203.08004,1067.99864 C1203.08004,1067.99864 1254.78999,1319.6077 880.916466,1449.00812 C880.916466,1449.00812 739.207334,1513.19115 413.979392,1440.85882 L301,1410.11016 L301,1753 L726.357994,1753 L841.617727,1753 C956.744227,1688.23579 1169.8383,1546.8585 1242.84253,1354.26588" id="Fill-6" fill="#373A4E"></path>
                                <path d="M1412.70575,1106.89946 C1294.43172,844.779574 1075.19518,839.018445 1001.63531,882.225638 C1001.63531,882.225638 1104.03831,864.113014 1181.92734,932.632323 C1181.92734,932.632323 1396.62197,1073.96299 1223.7554,1429.50992 C1223.7554,1429.50992 1168.94754,1574.97141 887.687881,1753.55875 L786,1811.62561 L1028.73551,2054 L1329.62378,1753.55619 L1411.1576,1672.14536 C1446.74439,1545.04988 1497.39994,1294.6007 1412.70575,1106.89946" id="Fill-8" fill="#373A4E"></path>
                                <path d="M1356.32803,812.122379 C1086.74404,710.275343 927.446514,861.009776 906,943.504058 C906,943.504058 965.658623,858.386238 1069.38307,851.844029 C1069.38307,851.844029 1321.58555,800.189759 1451.29115,1173.67667 C1451.29115,1173.67667 1515.62556,1315.2428 1443.12264,1640.1341 L1412.30146,1753 L1756,1753 L1756,1328.07638 L1756,1212.93504 C1691.08304,1097.92936 1549.37232,885.054185 1356.32803,812.122379" id="Fill-10" fill="#373A4E"></path>
                                <g id="Group-14" stroke-width="1" fill="none" transform="translate(862.000000, 597.000000)">
                                    <mask id="mask-6" fill="white">
                                        <use xlink:href="#path-5"></use>
                                    </mask>
                                    <g id="Clip-13"></g>
                                    <path d="M246.08708,46.8152678 C-16.3454006,164.740838 -22.1134009,383.331462 21.1453198,456.674604 C21.1453198,456.674604 3.011096,354.573304 71.612119,276.913755 C71.612119,276.913755 213.111338,62.8542085 569.082282,235.208931 C569.082282,235.208931 714.717241,289.855309 893.517562,570.286323 L951.653675,671.674611 L1194.31967,429.654253 L893.515,129.652461 L812.007083,48.3588497 C684.760026,12.8769101 434.012167,-37.6268417 246.08708,46.8152678" id="Fill-12" fill="#373A4E" mask="url(#mask-6)"></path>
                                </g>
                                <path d="M812.157377,700.734123 C710.205882,969.681236 861.094914,1128.60651 943.673806,1150 C943.673806,1150 858.468685,1090.48175 851.919766,987.001362 C851.919766,987.001362 800.212518,735.392296 1174.08506,605.991884 C1174.08506,605.991884 1315.79382,541.80885 1641.0209,614.141176 L1754,644.8924 L1754,302 L1328.64056,302 L1213.38113,302 C1098.25749,366.764212 885.161422,508.144057 812.157377,700.734123" id="Fill-15" fill="#373A4E"></path>
                                <g id="Group-19" stroke-width="1" fill="none" transform="translate(597.000000, 0.000000)">
                                    <mask id="mask-8" fill="white">
                                        <use xlink:href="#path-7"></use>
                                    </mask>
                                    <g id="Clip-18"></g>
                                    <path d="M46.340073,947.884566 C164.472621,1210.06564 383.454209,1215.82811 456.927672,1172.61083 C456.927672,1172.61083 354.642392,1190.72769 276.844853,1122.19238 C276.844853,1122.19238 62.4049526,980.828717 235.068486,625.201349 C235.068486,625.201349 289.811963,479.703345 570.741263,301.071753 L672.307144,242.996454 L429.85931,0.56292774 L129.324456,301.074313 L47.8863977,382.504146 C12.3388515,509.631862 -38.2546384,760.142068 46.340073,947.884566" id="Fill-17" fill="#373A4E" mask="url(#mask-8)"></path>
                                </g>
                            </g>
                        </g>
                    </g>
                </g>
            </g>
        </g>
    </g>
</svg>