<?xml version="1.0" encoding="utf-8"?>
<!-- Generator: Adobe Illustrator 22.1.0, SVG Export Plug-In . SVG Version: 6.00 Build 0)  -->
<svg version="1.1" id="Слой_1" xmlns="http://www.w3.org/2000/svg" xmlns:xlink="http://www.w3.org/1999/xlink" x="0px" y="0px"
	 viewBox="0 0 20 20" enable-background="new 0 0 20 20" xml:space="preserve">
<path id="back_2_" fill="#1DA1F2" d="M5,0.1h10c2.8,0,5,2.2,5,5v10c0,2.8-2.2,5-5,5H5c-2.8,0-5-2.2-5-5v-10C0,2.3,2.2,0.1,5,0.1z"/>
<path fill="#FFFFFF" d="M16.7,6c-0.5,0.2-1,0.4-1.6,0.4c0.6-0.3,1-0.9,1.2-1.5c-0.5,0.3-1.1,0.5-1.7,0.7c-0.5-0.5-1.2-0.9-2-0.9
	c-1.5,0-2.7,1.2-2.7,2.7c0,0.2,0,0.4,0.1,0.6C7.6,7.9,5.6,6.8,4.2,5.2C4,5.6,3.9,6,3.9,6.6c0,1,0.5,1.8,1.2,2.3
	c-0.4,0-0.9-0.1-1.2-0.3c0,0,0,0,0,0c0,1.3,1,2.4,2.2,2.7c-0.2,0.1-0.5,0.1-0.7,0.1c-0.2,0-0.4,0-0.5,0c0.4,1.1,1.4,1.9,2.6,1.9
	c-0.9,0.7-2.1,1.2-3.4,1.2c-0.2,0-0.4,0-0.7,0c1.2,0.8,2.7,1.2,4.2,1.2c5.1,0,7.8-4.2,7.8-7.8c0-0.1,0-0.2,0-0.4
	C15.9,7,16.3,6.5,16.7,6z"/>
</svg>
